<svg id="icons" xmlns="http://www.w3.org/2000/svg" width="24" height="24" viewBox="0 0 24 24">
  <defs>
    <style>
      .cls-1 {
        fill: #d9725c;
      }
    </style>
  </defs>
  <title>finance_dollar-symbol-24x24</title>
  <path class="cls-1" d="M6.439,4.481a5.046,5.046,0,0,0,0,7.05A4.88,4.88,0,0,0,8,12.6a4.728,4.728,0,0,0,1.9.4H11v8H9.9a3.77,3.77,0,0,1-1.509-.316,3.85,3.85,0,0,1-1.239-.858,3.964,3.964,0,0,1-.841-1.27.5.5,0,0,0-.923.379,4.967,4.967,0,0,0,1.049,1.591A4.886,4.886,0,0,0,7.994,21.6a4.777,4.777,0,0,0,1.907.4H11v1.5a.5.5,0,1,0,1,.036V22h1.1a4.769,4.769,0,0,0,1.906-.4,4.891,4.891,0,0,0,1.556-1.073,4.958,4.958,0,0,0,1.049-1.589,5.062,5.062,0,0,0,0-3.875A4.978,4.978,0,0,0,15.006,12.4,4.739,4.739,0,0,0,13.1,12H12V4.009h1.1a3.769,3.769,0,0,1,1.509.315,3.908,3.908,0,0,1,1.241.855,3.994,3.994,0,0,1,.838,1.27.5.5,0,0,0,.923-.378,4.938,4.938,0,0,0-1.049-1.588A4.875,4.875,0,0,0,15.006,3.41a4.752,4.752,0,0,0-1.906-.4H12V1.51a.5.5,0,1,0-1-.035.2.2,0,0,0,0,.035v1.5H9.9a4.777,4.777,0,0,0-1.907.4A4.891,4.891,0,0,0,6.439,4.481ZM13.1,13a3.765,3.765,0,0,1,1.508.316,3.869,3.869,0,0,1,1.24.858,3.989,3.989,0,0,1,.84,1.27,4.061,4.061,0,0,1,0,3.111,3.957,3.957,0,0,1-.841,1.272,3.891,3.891,0,0,1-1.239.856A3.745,3.745,0,0,1,13.1,21H12V13ZM9.9,4.009H11V12H9.9a3.753,3.753,0,0,1-1.509-.316,3.862,3.862,0,0,1-1.239-.857,4.052,4.052,0,0,1,0-5.655,3.91,3.91,0,0,1,1.239-.857A3.764,3.764,0,0,1,9.9,4.009Z"/>
</svg>
