<svg id="Layer_1" data-name="Layer 1" xmlns="http://www.w3.org/2000/svg" viewBox="0 0 23 19"><defs><style>.cls-1{fill:#e37c53;}</style></defs><path class="cls-1" d="M2.5,20h20A1.5,1.5,0,0,0,24,18.5V5.5A1.5,1.5,0,0,0,22.5,4H22V2.5a.51.51,0,0,0-.26-.44A10.29,10.29,0,0,0,17,1a10.39,10.39,0,0,0-4.5.94A10.39,10.39,0,0,0,8,1,10.29,10.29,0,0,0,3.26,2.06.51.51,0,0,0,3,2.5V4H2.5A1.5,1.5,0,0,0,1,5.5v13A1.5,1.5,0,0,0,2.5,20ZM21,2.81V16.72A10.76,10.76,0,0,0,17,16a10.76,10.76,0,0,0-4,.74V2.82A9.51,9.51,0,0,1,17,2,9.51,9.51,0,0,1,21,2.81Zm-17,0A9.51,9.51,0,0,1,8,2a9.51,9.51,0,0,1,4,.82V16.74A10.76,10.76,0,0,0,8,16a10.76,10.76,0,0,0-4,.72ZM2,5.5A.5.5,0,0,1,2.5,5H3V17.5a.5.5,0,0,0,.24.43.52.52,0,0,0,.5,0A9.15,9.15,0,0,1,8,17a9.15,9.15,0,0,1,4.26.94h0a.51.51,0,0,0,.44,0h0A9.15,9.15,0,0,1,17,17a9.15,9.15,0,0,1,4.26.94.52.52,0,0,0,.5,0A.5.5,0,0,0,22,17.5V5h.5a.5.5,0,0,1,.5.5v13a.5.5,0,0,1-.5.5H2.5a.5.5,0,0,1-.5-.5Z" transform="translate(-1 -1)"/><path class="cls-1" d="M5.5,5h5a.5.5,0,0,0,0-1h-5a.5.5,0,0,0,0,1Z" transform="translate(-1 -1)"/><path class="cls-1" d="M5.5,8h5a.5.5,0,0,0,0-1h-5a.5.5,0,0,0,0,1Z" transform="translate(-1 -1)"/><path class="cls-1" d="M5.5,11h5a.5.5,0,0,0,0-1h-5a.5.5,0,0,0,0,1Z" transform="translate(-1 -1)"/><path class="cls-1" d="M5.5,14h5a.5.5,0,0,0,0-1h-5a.5.5,0,0,0,0,1Z" transform="translate(-1 -1)"/><path class="cls-1" d="M14.5,5h5a.5.5,0,0,0,0-1h-5a.5.5,0,0,0,0,1Z" transform="translate(-1 -1)"/><path class="cls-1" d="M14.5,8h5a.5.5,0,0,0,0-1h-5a.5.5,0,0,0,0,1Z" transform="translate(-1 -1)"/><path class="cls-1" d="M14.5,11h5a.5.5,0,0,0,0-1h-5a.5.5,0,0,0,0,1Z" transform="translate(-1 -1)"/><path class="cls-1" d="M19.5,13h-5a.5.5,0,0,0,0,1h5a.5.5,0,0,0,0-1Z" transform="translate(-1 -1)"/></svg>