<svg id="Layer_1" data-name="Layer 1" xmlns="http://www.w3.org/2000/svg" width="48" height="48" viewBox="0 0 48 48">
  <defs>
    <style>
      .cls-1 {
        fill: none;
        stroke: #d9725c;
        stroke-linecap: round;
        stroke-linejoin: round;
        stroke-width: 2px;
      }
    </style>
  </defs>
  <title>Artboard 1</title>
  <g>
    <path class="cls-1" d="M41,9V45a2,2,0,0,1-2,2H9a2,2,0,0,1-2-2V5"/>
    <path class="cls-1" d="M41,1H11A4,4,0,0,0,7,5H7a4,4,0,0,0,4,4H41"/>
    <line class="cls-1" x1="11" y1="5" x2="41" y2="5"/>
    <line class="cls-1" x1="13" y1="9" x2="13" y2="47"/>
  </g>
  <polyline class="cls-1" points="34.917 10 34.917 17 34.917 24 29.917 20 24.917 24 24.917 17 24.917 10"/>
</svg>
