<?xml version="1.0" encoding="UTF-8"?>
<svg id="svg6538" xmlns="http://www.w3.org/2000/svg" viewBox="0 0 24 24">
  <defs>
    <style>
      .cls-1, .cls-2 {
        fill: none;
      }

      .cls-2 {
        stroke: #e37c52;
        stroke-miterlimit: 10;
      }
    </style>
  </defs>
  <rect class="cls-1" x="-8.4" y="-7.1" width="40.6" height="40.6"/>
  <g>
    <path class="cls-2" d="M22.5,16.4H3.2L.9,12.3H5.3c.4,0,.8,.2,1.1,.4l.6,.6c.3,.3,.7,.4,1.1,.4h10.8c.2,0,.5-.1,.6-.3l.3-.5c.1-.2,.4-.3,.6-.3h3l-.7,3.7Z"/>
    <rect class="cls-2" x="8.4" y="8.6" width="2.6" height="1.5"/>
    <rect class="cls-2" x="5.4" y="8.6" width="2.6" height="1.5"/>
    <rect class="cls-2" x="2.4" y="10.5" width="2.6" height="1.5"/>
    <rect class="cls-2" x="11.4" y="10.5" width="2.6" height="1.5"/>
    <rect class="cls-2" x="14.3" y="10.5" width="2.6" height="1.5"/>
    <path class="cls-2" d="M18.9,10.8l-.3,2.6h.2c.1,0,.2,0,.3-.2l.3-.5c.2-.3,.6-.5,.9-.5h1.4l-.3-3v-.7h-.7v-.7h-.7l-.2,.7h-1.2v.7h0l.3,1.5Z"/>
    <rect class="cls-2" x="7.6" y="12.1" width="10.4" height="1.5"/>
  </g>
</svg>