<svg id="icons" xmlns="http://www.w3.org/2000/svg" width="48" height="48" viewBox="0 0 48 48">
  <defs>
    <style>
      .cls-1 {
        fill: #d9725c;
      }
    </style>
  </defs>
  <title>healthcare-technology-icon-48x48</title>
  <path class="cls-1" d="M35.54,4A15.411,15.411,0,0,0,24,10.02,15.413,15.413,0,0,0,12.46,4C5.589,4,0,10.417,0,18.305c0,9.44,5.305,12.959,11.448,17.034,3.834,2.544,8.179,5.427,11.748,10.255a1,1,0,0,0,1.608,0c3.569-4.828,7.915-7.711,11.748-10.255C42.694,31.264,48,27.745,48,18.305,48,10.417,42.41,4,35.54,4ZM12.46,6c3.909,0,8.31,2.583,10.7,6.28a1.039,1.039,0,0,0,1.68,0C27.23,8.583,31.63,6,35.54,6,41.308,6,46,11.52,46,18.305a17.8,17.8,0,0,1-.37,3.7H39a1,1,0,0,0-.832.445l-3.044,4.566L29.9,16.553A1,1,0,0,0,29.062,16a.98.98,0,0,0-.894.443L24.465,22H21a1,1,0,0,0-.832.445l-2.917,4.376L11.937,12.649A1,1,0,0,0,11.011,12a1.043,1.043,0,0,0-.94.628L6.323,22H2.37A17.8,17.8,0,0,1,2,18.305C2,11.52,6.692,6,12.46,6ZM35.446,33.673C31.753,36.124,27.6,38.877,24,43.362c-3.6-4.485-7.753-7.238-11.446-9.689C8.236,30.809,4.592,28.377,2.945,24H7a1,1,0,0,0,.929-.628l3.041-7.6,5.093,13.583a1,1,0,0,0,.823.642A.872.872,0,0,0,17,30a1,1,0,0,0,.832-.446L21.535,24H25a1,1,0,0,0,.832-.445l3.044-4.567L34.1,29.447a1,1,0,0,0,.833.551.99.99,0,0,0,.894-.444L39.535,24h5.52C43.408,28.377,39.764,30.809,35.446,33.673Z"/>
</svg>
