<svg id="Layer_1" data-name="Layer 1" xmlns="http://www.w3.org/2000/svg" width="48.006" height="48" viewBox="0 0 48.006 48">
  <defs>
    <style>
      .cls-1 {
        fill: #d9725c;
      }
    </style>
  </defs>
  <title>market-vendor-icon-48x48</title>
  <path class="cls-1" d="M47.266,15.026,42,8.641V1a1,1,0,0,0-1-1H7A1,1,0,0,0,6,1V8.641L.744,15.015a2.994,2.994,0,0,0-.471,3.236A2.925,2.925,0,0,0,2.96,20H5.947V47a1,1,0,0,0,1,1H41.053a1,1,0,0,0,1-1V20H45.04a2.924,2.924,0,0,0,2.687-1.749A2.983,2.983,0,0,0,47.266,15.026ZM40,2V8H8V2ZM18.22,18l1.6-8H23v8Zm-7.743,0,3.2-8h4.1l-1.6,8ZM25,10h3.18l1.6,8H25Zm6.82,8-1.6-8h4.1l3.2,8ZM2.1,17.428a1.016,1.016,0,0,1,.16-1.105l.021-.025,5.2-6.3h4.051l-3.2,8H2.96A.932.932,0,0,1,2.1,17.428ZM30,46H18V32H30Zm10.053,0H32V31a1,1,0,0,0-1-1H17a1,1,0,0,0-1,1V46H7.947V20H40.053ZM45.9,17.428A.931.931,0,0,1,45.04,18H39.677l-3.2-8h4.051l5.215,6.323A1.015,1.015,0,0,1,45.9,17.428Z" transform="translate(0.003)"/>
</svg>
