<svg id="icons" xmlns="http://www.w3.org/2000/svg" width="48.04" height="46" viewBox="0 0 48.04 46">
  <defs>
    <style>
      .cls-1 {
        fill: #d9725c;
      }
    </style>
  </defs>
  <title>real-estate-home-key-01-48x48</title>
  <g>
    <path class="cls-1" d="M47.5,22.116,39.99,15.588V9a1,1,0,0,0-1-1h-6a1,1,0,0,0-.948.678l-7.4-6.432a1,1,0,0,0-1.312,0l-23,20A1,1,0,0,0,.99,24h3V47a1,1,0,0,0,1,1h38a1,1,0,0,0,1-1V24h3a.261.261,0,0,0,.04,0,1,1,0,0,0,.466-1.884ZM42.99,22a1,1,0,0,0-1,1V46h-36V23a1,1,0,0,0-1-1H3.664L23.99,4.324l8.344,7.256a1,1,0,0,0,1.656-.754V10h4v6.042a1,1,0,0,0,.344.754L44.316,22Z" transform="translate(0.01 -2)"/>
    <path class="cls-1" d="M27.789,15.938a1,1,0,0,0,0-2H24.052V13.13a1,1,0,0,0-2,0V29.914a5.737,5.737,0,1,0,2,0V19.988h3.737a1,1,0,0,0,0-2H24.052v-2.05Zm-1,19.611a3.737,3.737,0,1,1-3.737-3.737A3.74,3.74,0,0,1,26.789,35.549Z" transform="translate(0.01 -2)"/>
  </g>
</svg>
