<svg id="Layer_1" data-name="Layer 1" xmlns="http://www.w3.org/2000/svg" width="48" height="48" viewBox="0 0 48 48">
  <defs>
    <style>
      .cls-1 {
        fill: #d9725c;
      }
    </style>
  </defs>
  <title>scale-icon-48x48</title>
  <g>
    <path class="cls-1" d="M30,19.414V25a1,1,0,0,0,2,0V17a1,1,0,0,0-.618-.923A1.01,1.01,0,0,0,31,16H23a1,1,0,0,0,0,2h5.586l-10,10H1a1,1,0,0,0-1,1V47a1,1,0,0,0,1,1H19a1,1,0,0,0,1-1V29.414ZM2,46V30H8v3.223a1,1,0,0,0,2,0V30h8v8H14.778a1,1,0,1,0,0,2H18v6Z"/>
    <path class="cls-1" d="M47,36a1,1,0,0,0-1,1v1H45a1,1,0,0,0,0,2h2a1,1,0,0,0,1-1V37A1,1,0,0,0,47,36Z"/>
    <path class="cls-1" d="M26.111,38H22.334a1,1,0,0,0,0,2h3.777a1,1,0,1,0,0-2Z"/>
    <path class="cls-1" d="M41.223,38H37.445a1,1,0,1,0,0,2h3.778a1,1,0,0,0,0-2Z"/>
    <path class="cls-1" d="M33.667,38H29.89a1,1,0,0,0,0,2h3.777a1,1,0,0,0,0-2Z"/>
    <path class="cls-1" d="M11,38H10V37a1,1,0,0,0-2,0v2a1,1,0,0,0,1,1h2a1,1,0,0,0,0-2Z"/>
    <path class="cls-1" d="M9,19.111a1,1,0,0,0,1-1V14.334a1,1,0,0,0-2,0v3.777A1,1,0,0,0,9,19.111Z"/>
    <path class="cls-1" d="M9,26.667a1,1,0,0,0,1-1V21.889a1,1,0,0,0-2,0v3.778A1,1,0,0,0,9,26.667Z"/>
    <path class="cls-1" d="M9,11.556a1,1,0,0,0,1-1V6.778a1,1,0,1,0-2,0v3.778A1,1,0,0,0,9,11.556Z"/>
    <path class="cls-1" d="M9,4a1,1,0,0,0,1-1V2h1a1,1,0,0,0,0-2H9A1,1,0,0,0,8,1V3A1,1,0,0,0,9,4Z"/>
    <path class="cls-1" d="M41.223,0H37.444a1,1,0,0,0,0,2h3.779a1,1,0,0,0,0-2Z"/>
    <path class="cls-1" d="M22.333,2h3.778a1,1,0,0,0,0-2H22.333a1,1,0,0,0,0,2Z"/>
    <path class="cls-1" d="M14.778,2h3.778a1,1,0,0,0,0-2H14.778a1,1,0,0,0,0,2Z"/>
    <path class="cls-1" d="M33.667,0H29.889a1,1,0,0,0,0,2h3.778a1,1,0,0,0,0-2Z"/>
    <path class="cls-1" d="M47,0H45a1,1,0,0,0,0,2h1V3a1,1,0,0,0,2,0V1A1,1,0,0,0,47,0Z"/>
    <path class="cls-1" d="M47,5.778a1,1,0,0,0-1,1v3.778a1,1,0,0,0,2,0V6.778A1,1,0,0,0,47,5.778Z"/>
    <path class="cls-1" d="M47,28.444a1,1,0,0,0-1,1v3.779a1,1,0,0,0,2,0V29.444A1,1,0,0,0,47,28.444Z"/>
    <path class="cls-1" d="M47,13.333a1,1,0,0,0-1,1v3.778a1,1,0,1,0,2,0V14.333A1,1,0,0,0,47,13.333Z"/>
    <path class="cls-1" d="M47,20.889a1,1,0,0,0-1,1v3.778a1,1,0,0,0,2,0V21.889A1,1,0,0,0,47,20.889Z"/>
  </g>
</svg>
