<svg id="Layer_1" data-name="Layer 1" xmlns="http://www.w3.org/2000/svg" viewBox="0 0 48 48"><defs><style>.cls-1,.cls-2{fill:none;stroke:#d9725c;stroke-width:2px;}.cls-1{stroke-linecap:round;stroke-linejoin:round;}.cls-2{stroke-miterlimit:10;}.cls-3{fill:#d9725c;}</style></defs><circle class="cls-1" cx="17.68" cy="19.26" r="7.94"/><path class="cls-1" d="M32.68,43.08V40.92c0-7.58-6.72-13.72-15-13.72h0c-8.28,0-15,6.14-15,13.72v2.16"/><path class="cls-2" d="M36.76,18.31l-.6,0a.57.57,0,0,0-.34.07l-3.91,2,.82-2.49a.66.66,0,0,0-.27-.77,8,8,0,0,1,4.3-14.7,7.68,7.68,0,0,1,2.68.47,8,8,0,0,1-2.68,15.48Z"/><circle class="cls-3" cx="32.77" cy="10.34" r="1.33"/><circle class="cls-3" cx="36.76" cy="10.34" r="1.33"/><circle class="cls-3" cx="40.74" cy="10.34" r="1.33"/></svg>