<svg id="Layer_1" data-name="Layer 1" xmlns="http://www.w3.org/2000/svg" width="48" height="48" viewBox="0 0 48 48">
  <defs>
    <style>
      .cls-1 {
        fill: #d9725c;
      }
    </style>
  </defs>
  <title>automated-payment-flows-icon-money-sync-01</title>
  <g>
    <path class="cls-1" d="M24,38a1,1,0,0,0,1-1V36h.6a4.9,4.9,0,0,0,2.144-.494,5.413,5.413,0,0,0,1.713-1.314,6.058,6.058,0,0,0,1.132-1.9,6.6,6.6,0,0,0,0-4.582,6.066,6.066,0,0,0-1.132-1.9,5.409,5.409,0,0,0-1.715-1.315A4.893,4.893,0,0,0,25.6,24H25V16h.6a2.9,2.9,0,0,1,1.273.3,3.429,3.429,0,0,1,1.084.835,4.081,4.081,0,0,1,.758,1.278,1,1,0,0,0,1.875-.7,6.073,6.073,0,0,0-1.132-1.9,5.409,5.409,0,0,0-1.715-1.315A4.893,4.893,0,0,0,25.6,14H25V13a1,1,0,0,0-2,0v1h-.6a4.889,4.889,0,0,0-2.143.494,5.425,5.425,0,0,0-1.715,1.314,6.093,6.093,0,0,0-1.132,1.9,6.6,6.6,0,0,0,0,4.583,6.078,6.078,0,0,0,1.131,1.9,5.425,5.425,0,0,0,1.715,1.314A4.889,4.889,0,0,0,22.4,26H23v8h-.6a2.921,2.921,0,0,1-1.274-.3,3.422,3.422,0,0,1-1.083-.835,4.084,4.084,0,0,1-.759-1.279,1,1,0,1,0-1.873.7,6.078,6.078,0,0,0,1.131,1.9,5.425,5.425,0,0,0,1.715,1.314A4.889,4.889,0,0,0,22.4,36H23v1A1,1,0,0,0,24,38ZM22.4,24a2.907,2.907,0,0,1-1.274-.3,3.433,3.433,0,0,1-1.083-.834,4.107,4.107,0,0,1-.759-1.279,4.6,4.6,0,0,1,0-3.183,4.1,4.1,0,0,1,.759-1.28,3.433,3.433,0,0,1,1.083-.834A2.907,2.907,0,0,1,22.4,16H23v8ZM25,26h.6a2.917,2.917,0,0,1,1.273.3,3.429,3.429,0,0,1,1.084.835,4.1,4.1,0,0,1,.759,1.279,4.6,4.6,0,0,1,0,3.184,4.087,4.087,0,0,1-.759,1.278,3.433,3.433,0,0,1-1.082.834A2.924,2.924,0,0,1,25.6,34H25Z"/>
    <path class="cls-1" d="M46,24a1,1,0,0,0-1,1c0,.71-.036,1.434-.108,2.148-.071.7-.178,1.4-.319,2.085a20.67,20.67,0,0,1-.517,2.013c-.2.649-.439,1.3-.7,1.928s-.561,1.24-.885,1.835-.675,1.175-1.051,1.731-.784,1.1-1.209,1.616-.886,1.022-1.355,1.493-.976.928-1.494,1.356-1.061.834-1.618,1.21-1.137.729-1.73,1.051-1.212.621-1.835.885-1.279.5-1.93.7a20.484,20.484,0,0,1-2.011.517c-.689.141-1.39.248-2.084.319a21.425,21.425,0,0,1-4.3,0c-.7-.071-1.4-.178-2.085-.319a20.678,20.678,0,0,1-2.013-.517c-.649-.2-1.3-.439-1.928-.7s-1.242-.562-1.835-.885-1.179-.678-1.732-1.052-1.1-.78-1.616-1.208-1.018-.884-1.492-1.356-.929-.975-1.356-1.493S6.962,37.3,6.586,36.741c-.163-.241-.3-.494-.45-.741H12a1,1,0,0,0,0-2H4a1,1,0,0,0-1,1v8a1,1,0,0,0,2,0V37.956c.393.576.811,1.141,1.253,1.675.467.565.966,1.115,1.484,1.634s1.068,1.016,1.633,1.483,1.164.914,1.77,1.323,1.243.8,1.9,1.153,1.326.679,2.011.968,1.4.553,2.113.774a22.769,22.769,0,0,0,2.206.566,23.006,23.006,0,0,0,2.285.35C22.433,47.96,23.223,48,24,48s1.567-.04,2.35-.118a22.785,22.785,0,0,0,2.284-.35c.749-.153,1.491-.344,2.2-.566s1.424-.482,2.115-.774,1.359-.614,2.011-.968,1.287-.741,1.9-1.152,1.2-.856,1.773-1.325,1.115-.967,1.633-1.484,1.013-1.065,1.483-1.632.911-1.16,1.324-1.771.8-1.249,1.152-1.9.68-1.328.968-2.011.553-1.4.774-2.113.413-1.457.566-2.206a22.76,22.76,0,0,0,.35-2.285C46.96,26.567,47,25.777,47,25A1,1,0,0,0,46,24Z"/>
    <path class="cls-1" d="M3.108,22.852c.072-.7.179-1.4.318-2.084s.314-1.356.518-2.014.439-1.3.706-1.928.563-1.244.884-1.835.674-1.173,1.052-1.732.781-1.1,1.209-1.617.881-1.017,1.355-1.491.977-.931,1.493-1.356,1.06-.833,1.617-1.209,1.14-.732,1.731-1.052,1.212-.62,1.835-.884,1.282-.505,1.929-.706,1.334-.379,2.012-.518,1.383-.246,2.085-.318a21.415,21.415,0,0,1,4.3,0c.7.071,1.4.178,2.084.317s1.359.314,2.014.518,1.3.438,1.928.706,1.239.56,1.836.884,1.169.672,1.73,1.052,1.1.784,1.617,1.209,1.02.883,1.492,1.355.93.977,1.356,1.492.835,1.064,1.21,1.618c.16.236.3.494.449.74H36a1,1,0,0,0,0,2h8a1,1,0,0,0,1-1V7a1,1,0,0,0-2,0v5.044c-.391-.573-.809-1.137-1.253-1.675-.466-.564-.965-1.113-1.483-1.633S39.2,7.72,38.631,7.253s-1.159-.911-1.771-1.324-1.254-.8-1.9-1.153-1.33-.68-2.011-.968-1.406-.554-2.114-.773a22.757,22.757,0,0,0-2.2-.568c-.748-.153-1.517-.27-2.283-.348a23.381,23.381,0,0,0-4.7,0,23.075,23.075,0,0,0-2.284.348c-.743.153-1.485.344-2.2.567s-1.421.481-2.115.774-1.359.615-2.01.968-1.286.739-1.9,1.153-1.206.857-1.77,1.323-1.113.964-1.634,1.485S6.717,9.806,6.253,10.369s-.915,1.165-1.324,1.771-.8,1.25-1.152,1.9S3.1,15.36,2.808,16.047s-.553,1.4-.774,2.114-.414,1.461-.567,2.2a23.01,23.01,0,0,0-.348,2.283A23.307,23.307,0,0,0,1,25a1,1,0,0,0,2,0C3,24.284,3.037,23.561,3.108,22.852Z"/>
  </g>
</svg>
