<svg id="Layer_1" data-name="Layer 1" xmlns="http://www.w3.org/2000/svg" width="48" height="48" viewBox="0 0 48 48"><defs><style>.cls-1{fill:none;stroke:#d9725c;stroke-linecap:round;stroke-miterlimit:10;stroke-width:2px;}</style></defs><title>integration-partners-icon-48x48</title><path class="cls-1" d="M31,33V16a14.006,14.006,0,0,0-1.2-5.8,17.509,17.509,0,0,0-3.2-4.8,13.063,13.063,0,0,0-4.8-3.2A15.8,15.8,0,0,0,16,1a14.006,14.006,0,0,0-5.8,1.2A15.519,15.519,0,0,0,5.4,5.4a13.942,13.942,0,0,0-3.2,4.8A14.006,14.006,0,0,0,1,16a14.006,14.006,0,0,0,1.2,5.8,17.509,17.509,0,0,0,3.2,4.8,13.942,13.942,0,0,0,4.8,3.2"/><polyline class="cls-1" points="37 27 31 33 25 27"/><path class="cls-1" d="M17,15V32a14.006,14.006,0,0,0,1.2,5.8,17.509,17.509,0,0,0,3.2,4.8,13.942,13.942,0,0,0,4.8,3.2,14.617,14.617,0,0,0,11.6,0,17.509,17.509,0,0,0,4.8-3.2,13.942,13.942,0,0,0,3.2-4.8,14.617,14.617,0,0,0,0-11.6,17.509,17.509,0,0,0-3.2-4.8,13.942,13.942,0,0,0-4.8-3.2"/><polyline class="cls-1" points="11 21 17 15 23 21"/></svg>