<svg id="Layer_1" data-name="Layer 1" xmlns="http://www.w3.org/2000/svg" width="150" height="50" viewBox="0 0 150 50"><defs><style>.cls-1{fill:#d41b27;}</style></defs><path id="kasasa-color" class="cls-1" d="M59.52,14.38c.53.1,1,.17,1.58.32a8.7,8.7,0,0,1,4.35,2.48.82.82,0,0,1,.12.15L63.3,19.38s-.08,0-.1-.08a6.28,6.28,0,0,0-4.38-1.75,6.8,6.8,0,0,0-3.15.48,1.89,1.89,0,0,0-1.32,1.6,2.2,2.2,0,0,0,1,2.37,19.85,19.85,0,0,0,2.68,1.05c1,.3,2,.48,2.9.75a9.21,9.21,0,0,1,3.52,1.83,4.7,4.7,0,0,1,1.68,3.15,5.74,5.74,0,0,1-1,4.22,6.72,6.72,0,0,1-4.1,2.4c-.44.1-.92.18-1.4.25H57a14.43,14.43,0,0,1-1.45-.32,8.41,8.41,0,0,1-5.3-3.8,2.91,2.91,0,0,1-.2-.35l2.67-1.43a17.38,17.38,0,0,0,1.5,1.48,6.31,6.31,0,0,0,4.23,1.3,7.87,7.87,0,0,0,2.7-.5A2.53,2.53,0,0,0,62.7,28.8a2,2,0,0,0-1.2-1.3c-1.15-.42-2.32-.85-3.52-1.17a19.25,19.25,0,0,1-3.58-1.18,10.91,10.91,0,0,1-1.58-.93,4.52,4.52,0,0,1-1.9-3.34,5.42,5.42,0,0,1,.33-2.95A5.56,5.56,0,0,1,54,15.25a10.11,10.11,0,0,1,3.35-.87c.1,0,.18-.06.28-.06h1.87Zm52.33,0c.6.12,1.22.22,1.8.37a8.58,8.58,0,0,1,4.13,2.43.84.84,0,0,1,.1.12l-2.25,2c-.5-.35-.95-.73-1.48-1a7.15,7.15,0,0,0-3.75-.77,5.68,5.68,0,0,0-2.5.5,1.9,1.9,0,0,0-1.3,1.6,2.19,2.19,0,0,0,1,2.35A19.49,19.49,0,0,0,110.3,23c1.1.35,2.23.55,3.33.9a8.2,8.2,0,0,1,3.3,1.85A4.59,4.59,0,0,1,118.45,29a8.23,8.23,0,0,1-.1,2,5.35,5.35,0,0,1-3.7,4.05,19.79,19.79,0,0,1-2.42.57l-.28.08h-2.67a14.47,14.47,0,0,1-1.45-.33,8.53,8.53,0,0,1-5.33-3.82l-.17-.33,2.72-1.45c.35.4.68.83,1,1.18a6.33,6.33,0,0,0,4.65,1.62,7.56,7.56,0,0,0,2.7-.5,2.47,2.47,0,0,0,1.6-3,2,2,0,0,0-1.27-1.5c-1.15-.43-2.33-.85-3.53-1.18a20.15,20.15,0,0,1-3.57-1.17,14.18,14.18,0,0,1-1.55-.9,4.5,4.5,0,0,1-1.93-3.4,5.42,5.42,0,0,1,.32-2.95,5.58,5.58,0,0,1,2.73-2.63,9.6,9.6,0,0,1,3.32-.87c.1,0,.2,0,.3,0ZM0,14.6H3.32V23a1.57,1.57,0,0,0,2-.7c1.8-2.47,3.61-4.92,5.38-7.4a.58.58,0,0,1,.52-.27c1.15,0,2.3,0,3.5,0-2.4,3.35-4.77,6.62-7.12,9.9a71.34,71.34,0,0,1,4.32,6.42c.88,1.3,1.7,2.65,2.55,4,0,.1.13.2.2.33l-.32,0H11.27a.55.55,0,0,1-.52-.27c-1.53-2.35-3.08-4.68-4.63-7a5.4,5.4,0,0,0-1.8-1.82,6.49,6.49,0,0,0-1.05-.45v9.55H0Zm150,2.18a1.83,1.83,0,0,1-1.27,1.27,1.76,1.76,0,0,1-2.15-1.15,1.71,1.71,0,0,1,1-2.12,1.76,1.76,0,0,1,2.25,1,.61.61,0,0,0,.1.18v.85Zm-1.73.95a1.3,1.3,0,0,0,1.3-1.33,1.32,1.32,0,0,0-1.3-1.37,1.35,1.35,0,0,0,0,2.7M42,35.33h-3.3c-.1,0-.22-.15-.28-.25-.7-1.75-1.37-3.53-2-5.28-.09-.25-.22-.32-.5-.32-1.8,0-3.57,0-5.37,0A3.32,3.32,0,0,0,27,31.9c-.4,1.08-.8,2.15-1.18,3.23a.26.26,0,0,1-.27.22H22.32a.44.44,0,0,0-.12,0c.15-.43.3-.85.47-1.28,2.36-6.32,4.7-12.62,7.06-18.95a.44.44,0,0,1,.5-.35c1.12,0,2.25,0,3.37,0A.34.34,0,0,1,34,15c2.59,6.68,5.22,13.35,7.82,20a.93.93,0,0,1,.15.33M32,17.53s0,0-.05,0l-.08.28A20.5,20.5,0,0,1,31.32,20c-.75,2.15-1.57,4.3-2.37,6.45a1.21,1.21,0,0,0-.08.28c2.05-.4,4.13-.08,6.2-.23L35,26.25c-.58-1.5-1.18-3-1.75-4.47-.33-.85-.65-1.73-.93-2.6A11.5,11.5,0,0,1,32,17.53M75.1,35.3c.1-.25.18-.5.28-.72Q79,24.83,82.63,15.1a.45.45,0,0,1,.55-.37q1.65,0,3.3,0A.41.41,0,0,1,87,15c2.6,6.67,5.23,13.35,7.83,20a1.37,1.37,0,0,0,.1.28H91.53c-.08,0-.2-.15-.23-.28-.7-1.77-1.37-3.52-2.07-5.3a.38.38,0,0,0-.43-.3H83.28A3.35,3.35,0,0,0,80,31.75c-.4,1.1-.8,2.2-1.22,3.33,0,.12-.08.25-.28.25h-3.2a.31.31,0,0,1-.15,0m6.65-8.57c2.07-.4,4.15-.08,6.2-.23l-.07-.22L86,21.5a25.12,25.12,0,0,1-.82-2.4C85,18.58,85,18,84.83,17.5a.78.78,0,0,0-.13.3,19.69,19.69,0,0,1-.47,2.05c-.53,1.55-1.13,3-1.68,4.6-.25.78-.53,1.53-.8,2.28m64.85,8.6h-3.33c-.1,0-.22-.15-.25-.28l-1.92-4.93c-.25-.65-.25-.65-1-.65h-5a3.31,3.31,0,0,0-3.43,2.4c-.37,1.06-.77,2.13-1.15,3.18a1.25,1.25,0,0,1-.12.3h-3.52a1.18,1.18,0,0,1,.1-.3c2.47-6.68,5-13.32,7.45-20a.41.41,0,0,1,.47-.32c1.13,0,2.28,0,3.43,0a.33.33,0,0,1,.37.27c2.35,6,4.73,12.08,7.08,18.1.24.73.52,1.45.82,2.23m-10-17.8s0,0,0,0l-.08.28A20.67,20.67,0,0,1,136,20c-.75,2.17-1.57,4.32-2.38,6.47,0,.1-.07.2-.12.38a4.05,4.05,0,0,1,2-.3h4.25l-.1-.28c-.43-1.13-.9-2.22-1.3-3.35a23.76,23.76,0,0,1-1.5-4.32c-.05-.35-.12-.7-.2-1M148,16.6v.65h-.37V15.5h.87c.23,0,.48.08.5.33s-.1.37-.14.62l.27.75c-.35.13-.52,0-.55-.3s-.28-.35-.58-.3m0-.8v.48c.23,0,.52,0,.52-.25s-.27-.23-.52-.23"/></svg>