<svg width="32" height="38" viewBox="0 0 32 38" fill="none" xmlns="http://www.w3.org/2000/svg">
<path d="M2.375 38H29.2917C30.6011 38 31.6667 36.9344 31.6667 35.625V19.7917C31.6667 18.4823 30.6011 17.4167 29.2917 17.4167H26.9167V11.0833C26.9167 4.97167 21.945 0 15.8333 0C9.72167 0 4.75 4.97167 4.75 11.0833V17.4167H2.375C1.06558 17.4167 0 18.4823 0 19.7917V35.625C0 36.9344 1.06558 38 2.375 38ZM6.33333 11.0833C6.33333 5.84408 10.5941 1.58333 15.8333 1.58333C21.0726 1.58333 25.3333 5.84408 25.3333 11.0833V17.4167H22.1667V11.153C22.1667 7.62217 19.3262 4.75 15.8333 4.75C12.3405 4.75 9.5 7.62217 9.5 11.153V17.4167H6.33333V11.0833ZM20.5833 17.4167H11.0833V11.153C11.0833 8.49617 13.2145 6.33333 15.8333 6.33333C18.4522 6.33333 20.5833 8.49617 20.5833 11.153V17.4167ZM1.58333 19.7917C1.58333 19.3547 1.938 19 2.375 19H5.54167H10.2917H21.375H26.125H29.2917C29.7287 19 30.0833 19.3547 30.0833 19.7917V35.625C30.0833 36.062 29.7287 36.4167 29.2917 36.4167H2.375C1.938 36.4167 1.58333 36.062 1.58333 35.625V19.7917Z" fill="#D9725C"/>
<path d="M13.6249 27.596L12.6828 32.3032C12.6369 32.536 12.6971 32.7767 12.8475 32.9603C12.9963 33.144 13.2212 33.2501 13.4587 33.2501H18.2087C18.2197 33.2501 18.2308 33.2501 18.2403 33.2501C18.6773 33.2501 19.032 32.8954 19.032 32.4584C19.032 32.327 18.9987 32.2019 18.9433 32.0942L18.044 27.596C18.6314 27.0197 19.0003 26.2201 19.0003 25.3334C19.0003 23.587 17.5801 22.1667 15.8337 22.1667C14.0872 22.1667 12.667 23.587 12.667 25.3334C12.667 26.2201 13.0359 27.0197 13.6249 27.596ZM16.5921 28.4082L17.2428 31.6667H14.4245L15.0768 28.4082C15.0942 28.413 15.1117 28.4114 15.1291 28.4146C15.3555 28.4668 15.5898 28.5001 15.8337 28.5001C16.0775 28.5001 16.3118 28.4668 16.5398 28.4146C16.5572 28.4098 16.5747 28.413 16.5921 28.4082ZM15.8337 23.7501C16.7061 23.7501 17.417 24.461 17.417 25.3334C17.417 25.943 17.0592 26.4592 16.5509 26.7236C16.4923 26.7537 16.4353 26.7853 16.3752 26.8075C16.2327 26.8597 16.0807 26.8898 15.9223 26.8993C15.8622 26.9025 15.8036 26.9025 15.7434 26.8993C15.5851 26.8898 15.4331 26.8597 15.2906 26.8075C15.2288 26.7853 15.1734 26.7537 15.1148 26.7236C14.6082 26.4592 14.2503 25.943 14.2503 25.3334C14.2503 24.461 14.9612 23.7501 15.8337 23.7501Z" fill="#D9725C"/>
</svg>
